<?xml version="1.0" standalone="no"?><!DOCTYPE svg PUBLIC "-//W3C//DTD SVG 1.1//EN" "http://www.w3.org/Graphics/SVG/1.1/DTD/svg11.dtd"><svg t="1744190372294" class="icon" viewBox="0 0 1024 1024" version="1.1" xmlns="http://www.w3.org/2000/svg" p-id="18251" xmlns:xlink="http://www.w3.org/1999/xlink" width="200" height="200"><path d="M498.176 702.464c178.176 0 323.584-145.408 323.584-323.584s-145.408-323.584-323.584-323.584S174.592 200.704 174.592 378.88s145.408 323.584 323.584 323.584z m0-585.728c144.384 0 262.144 117.76 262.144 262.144 0 144.384-117.76 262.144-262.144 262.144s-262.144-117.76-262.144-262.144c0-144.384 117.76-262.144 262.144-262.144zM911.872 913.92c-108.544-115.712-255.488-179.712-413.696-179.712-151.552 0-293.888 58.88-400.896 166.4-11.776 11.776-11.776 31.232 0 43.52 11.776 11.776 31.232 11.776 43.52 0 95.232-95.744 221.696-147.968 356.864-147.968 140.8 0 271.872 56.832 368.64 160.256 6.144 6.656 14.336 9.728 22.528 9.728 7.68 0 14.848-2.56 20.992-8.192 12.8-12.288 13.312-31.744 2.048-44.032z" fill="#A456DD" p-id="18252"></path></svg>