<?xml version="1.0" standalone="no"?><!DOCTYPE svg PUBLIC "-//W3C//DTD SVG 1.1//EN" "http://www.w3.org/Graphics/SVG/1.1/DTD/svg11.dtd"><svg t="1744190227583" class="icon" viewBox="0 0 1024 1024" version="1.1" xmlns="http://www.w3.org/2000/svg" p-id="13300" xmlns:xlink="http://www.w3.org/1999/xlink" width="200" height="200"><path d="M893.8 193.9H130.7c-36.4 0-66 29.6-66 66v504.3c0 36.4 29.6 66 66 66h763.2c36.4 0 66-29.6 66-66V259.9c-0.1-36.4-29.7-66-66.1-66z m-381.6 335l-319.9-263H832l-319.8 263zM136.7 758.2V313.3l351.8 289.2c6.7 5.5 14.8 8.2 22.8 8.2h1.8c8 0 16.1-2.7 22.8-8.2l351.9-289.3v445H136.7z" p-id="13301" fill="#8a8a8a"></path></svg>